<?xml version="1.0" encoding="UTF-8"?>
<svg id="Layer_1" xmlns="http://www.w3.org/2000/svg" version="1.1" viewBox="0 0 844.2 474.8">
  <!-- Generator: Adobe Illustrator 29.6.1, SVG Export Plug-In . SVG Version: 2.1.1 Build 9)  -->
  <defs>
    <style>
      .st0 {
        fill: #dc425f;
      }

      .st1 {
        fill: #73b76f;
      }

      .st2 {
        fill: #e8a2e1;
      }

      .st3 {
        fill: #98cafc;
      }

      .st4 {
        fill: #e59254;
      }
    </style>
  </defs>
  <path class="st4" d="M274,354.8v2.8h-85.2v-2.8l28.5-3.5-32.7-89h-84.1l-28.9,76.8c-.9,2.6-1.4,4.6-1.4,6.3,0,2.6.7,4.3,2.3,5.4,1.5,1,4.2,1.8,8.2,2.3l21.2,1.7v2.8H27.9v-2.8l19.5-1.7c5.8-.5,9.9-1.6,12.3-3.5,2.4-1.9,4.6-5.3,6.4-10.4l85.2-227h6.3l87.6,239.2,28.9,3.5ZM182.6,256.8l-38.9-106h-1.4l-39.6,106h80Z"/>
  <path class="st3" d="M407.8,334c11.4-12.7,19.9-31.8,25.7-57l4.5.7v80h-4.5l-11.8-19.1c-10.4,7.6-21.7,13.7-33.9,18.1-12.2,4.4-23.9,6.6-35.3,6.6-20.2,0-38.7-5.6-55.5-16.7-16.8-11.1-30-26.2-39.6-45.4-9.6-19.1-14.4-40.3-14.4-63.5s4.8-44,14.4-63.3c9.6-19.2,22.8-34.4,39.5-45.5s35-16.7,54.9-16.7,21.1,1.7,32.2,5c11,3.4,23.2,8.6,36.7,15.8l8.3-16.7h4.5l3.5,78.2-4.9,1.4c-3.2-17.8-8.3-32.6-15.3-44.2-7-11.4-16-20.1-27.1-26.2-11.1-6.1-23.4-9.2-36.9-9.2-24.6,0-43.5,10.5-56.7,31.6-13.2,21.1-19.8,51-19.8,89.7s6.6,68.2,19.8,89.2c13.2,21,32,31.5,56.3,31.5s20.6-2.2,30.4-6.6c9.8-4.4,18.1-10.3,24.9-17.7Z"/>
  <path class="st1" d="M453,117.7h83.8v2.8l-28.5,2.8v228.8l28.5,2.8v2.8h-83.8v-2.8l28.5-2.8V123.3l-28.5-2.8v-2.8Z"/>
  <path class="st2" d="M754.3,177.2c7.9,17.4,11.8,37.1,11.8,59.1s-3.9,42.1-11.8,60.1c-7.9,18.1-18.9,32.2-33,42.4-9,6.5-19.4,11.2-31.1,14.3-11.7,3-26,4.5-42.9,4.5h-92.5v-2.8l28.5-2.8V123.3l-28.5-2.8v-2.8h92.5c31.5,0,56.2,6.1,74.1,18.4,14.1,10,25.1,23.6,33,41ZM726.4,292.4c4.3-17.5,6.4-36.8,6.4-57.9s-2-38.8-6.1-54.6c-4.1-15.8-10-28.3-17.9-37.5-6.5-7.6-14.5-13-24-16-9.5-3-23.1-4.5-40.7-4.5h-34.1v231.6h34.1c18.5,0,32.4-1.5,41.7-4.5,9.3-3,16.9-8.3,22.9-16,7.4-9.5,13.3-23,17.6-40.5Z"/>
  <g>
    <path class="st0" d="M776.7,121.6v30.8h-4.8v-30.8h-11.4v-4.2h27.5v4.2h-11.4Z"/>
    <path class="st0" d="M811.8,135.2v-10.8c.1,0-.3,0-.3,0l-7.2,18-7.2-18h-.4v10.8c0,0,0,17.2,0,17.2h-4.4v-34.9h6.1l5.8,14.7h.3l5.8-14.7h5.8v34.9h-4.4v-17.2Z"/>
  </g>
</svg>